<?xml version="1.0" encoding="UTF-8"?>
<svg width="12px" height="23px" viewBox="0 0 12 23" version="1.1" xmlns="http://www.w3.org/2000/svg" xmlns:xlink="http://www.w3.org/1999/xlink">
    <!-- Generator: Sketch 64 (93537) - https://sketch.com -->
    <title></title>
    <desc>Created with Sketch.</desc>
    <g id="Symbols" stroke="none" stroke-width="1" fill="none" fill-rule="evenodd">
        <g id="Footer_Desktop_new" transform="translate(-1082.000000, -352.000000)" fill="#FFFFFF" fill-rule="nonzero">
            <g id="Footer_Desktop">
                <g id="Group" transform="translate(1082.000000, 320.000000)">
                    <g id="Group-2" transform="translate(0.000000, 32.000000)">
                        <path d="M7.51339241,22.285713 L7.51339241,12.120535 L10.9151779,12.120535 L11.4374993,8.15624951 L7.51339241,8.15624951 L7.51339241,5.62499966 C7.51339241,4.98214256 7.64732097,4.5 7.9151781,4.17857118 C8.18303523,3.85714263 8.70089234,3.69642835 9.46874944,3.69642835 L9.46874944,3.69642835 L11.5714279,3.69642835 L11.5714279,0.160714276 C10.8482136,0.0535714254 9.83035656,1.77635684e-15 8.51785664,1.77635684e-15 C6.97321387,1.77635684e-15 5.7366068,0.457589258 4.80803543,1.37276778 C3.87946405,2.28794629 3.41517837,3.57589264 3.41517837,5.23660683 L3.41517837,5.23660683 L3.41517837,8.15624951 L8.8817842e-16,8.15624951 L8.8817842e-16,12.120535 L3.41517837,12.120535 L3.41517837,22.285713 L7.51339241,22.285713 Z" id=""></path>
                    </g>
                </g>
            </g>
        </g>
    </g>
</svg>