<?xml version="1.0" encoding="UTF-8"?>
<svg width="22px" height="22px" viewBox="0 0 22 22" version="1.1" xmlns="http://www.w3.org/2000/svg" xmlns:xlink="http://www.w3.org/1999/xlink">
    <!-- Generator: Sketch 64 (93537) - https://sketch.com -->
    <title></title>
    <desc>Created with Sketch.</desc>
    <g id="Symbols" stroke="none" stroke-width="1" fill="none" fill-rule="evenodd">
        <g id="Footer_Desktop_new" transform="translate(-1173.000000, -353.000000)" fill="#FFFFFF" fill-rule="nonzero">
            <g id="Footer_Desktop">
                <g id="Group" transform="translate(1082.000000, 320.000000)">
                    <g id="Group-2" transform="translate(0.000000, 32.000000)">
                        <path d="M102.367677,22.2854812 C104.222349,22.2830097 105.519432,22.2607655 106.258928,22.2187487 C108.116071,22.129463 109.55357,21.5758916 110.571428,20.5580345 C111.589285,19.5401774 112.142856,18.1026775 112.232142,16.2455347 C112.276785,15.4598205 112.299106,14.044642 112.299106,11.9999993 L112.298874,11.6457142 C112.296403,9.79104304 112.274159,8.49395958 112.232142,7.75446382 C112.142856,5.89732108 111.589285,4.45982116 110.571428,3.44196408 C109.55357,2.424107 108.116071,1.8705356 106.258928,1.78124989 C105.473214,1.73660704 104.058035,1.71428561 102.013392,1.71428561 C99.9687496,1.71428561 98.5535711,1.73660704 97.7678569,1.78124989 C95.9107141,1.8705356 94.4732142,2.424107 93.4553571,3.44196408 C92.4375,4.45982116 91.8839286,5.89732108 91.7946429,7.75446382 C91.7552522,8.44774109 91.7332397,9.63108568 91.7286055,11.3044976 L91.7286055,12.695501 C91.7332397,14.3689129 91.7552522,15.5522575 91.7946429,16.2455347 C91.8839286,18.1026775 92.4375,19.5401774 93.4553571,20.5580345 C94.4732142,21.5758916 95.9107141,22.129463 97.7678569,22.2187487 C98.5535711,22.2633915 99.9687496,22.285713 102.013392,22.285713 L102.367677,22.2854812 Z M100.988839,20.4441952 C100.368303,20.4486595 99.897321,20.4486595 99.5758925,20.4441952 C99.2544639,20.4397309 98.8236604,20.4263381 98.2834818,20.4040166 C97.7433033,20.3816952 97.2834819,20.3370524 96.9040176,20.2700881 C96.5245534,20.2031238 96.205357,20.1205345 95.9464284,20.0223202 C95.4999999,19.8437488 95.1071427,19.5848203 94.767857,19.2455346 C94.4285713,18.9062489 94.1696428,18.5133918 93.9910714,18.0669632 C93.8928571,17.8080347 93.8102678,17.4888382 93.7433035,17.109374 C93.6763392,16.7299097 93.6316964,16.2700883 93.609375,15.7299098 C93.5870535,15.1897312 93.5736607,14.7589277 93.5691964,14.4374991 C93.5647321,14.1160706 93.5647321,13.6450885 93.5691964,13.0245528 C93.5736607,12.4040171 93.5758928,12.0624993 93.5758928,11.9999993 L93.5758259,11.9728788 C93.5754241,11.8664055 93.5732143,11.5339279 93.5691964,10.9754458 C93.5647321,10.3549101 93.5647321,9.88392798 93.5691964,9.56249943 C93.5736607,9.24107088 93.5870535,8.81026733 93.609375,8.27008879 C93.6316964,7.72991025 93.6763392,7.27008885 93.7433035,6.89062459 C93.8102678,6.51116033 93.8928571,6.19196392 93.9910714,5.93303536 C94.1696428,5.48660682 94.4285713,5.0937497 94.767857,4.754464 C95.1071427,4.41517831 95.4999999,4.15624975 95.9464284,3.97767833 C96.205357,3.87946405 96.5245534,3.79687477 96.9040176,3.72991049 C97.2834819,3.66294621 97.7433033,3.61830336 98.2834818,3.59598193 C98.8236604,3.5736605 99.2544639,3.56026764 99.5758925,3.55580336 C99.897321,3.55133907 100.368303,3.55133907 100.988839,3.55580336 C101.609374,3.56026764 101.950892,3.56249979 102.013392,3.56249979 L103.031249,3.56249979 C103.656249,3.55357122 104.129464,3.55133907 104.450892,3.55580336 C104.772321,3.56026764 105.203124,3.5736605 105.743303,3.59598193 C106.283481,3.61830336 106.743303,3.66294621 107.122767,3.72991049 C107.502231,3.79687477 107.821428,3.87946405 108.080356,3.97767833 C108.526785,4.15624975 108.919642,4.41517831 109.258928,4.754464 C109.598213,5.0937497 109.857142,5.48660682 110.035713,5.93303536 C110.133928,6.19196392 110.216517,6.51116033 110.283481,6.89062459 C110.350445,7.27008885 110.395088,7.72991025 110.41741,8.27008879 C110.439731,8.81026733 110.453124,9.24107088 110.457588,9.56249943 C110.462053,9.88392798 110.462053,10.3549101 110.457588,10.9754458 C110.454463,11.4098207 110.452432,11.707477 110.451494,11.8684145 L110.451494,12.1315841 C110.452432,12.2925216 110.454463,12.5901778 110.457588,13.0245528 C110.462053,13.6450885 110.462053,14.1160706 110.457588,14.4374991 C110.453124,14.7589277 110.439731,15.1897312 110.41741,15.7299098 C110.395088,16.2700883 110.350445,16.7299097 110.283481,17.109374 C110.216517,17.4888382 110.133928,17.8080347 110.035713,18.0669632 C109.857142,18.5133918 109.598213,18.9062489 109.258928,19.2455346 C108.919642,19.5848203 108.526785,19.8437488 108.080356,20.0223202 C107.821428,20.1205345 107.502231,20.2031238 107.122767,20.2700881 C106.743303,20.3370524 106.283481,20.3816952 105.743303,20.4040166 C105.203124,20.4263381 104.772321,20.4397309 104.450892,20.4441952 C104.129464,20.4486595 103.658482,20.4486595 103.037946,20.4441952 C102.603571,20.4410702 102.305915,20.439039 102.144977,20.4381015 L101.881808,20.4381015 C101.72087,20.439039 101.423214,20.4410702 100.988839,20.4441952 Z M107.504463,7.74107097 C107.843749,7.74107097 108.133928,7.62053526 108.374999,7.37946385 C108.61607,7.13839243 108.736606,6.84821388 108.736606,6.50892818 C108.736606,6.16964249 108.61607,5.87946394 108.374999,5.63839252 C108.133928,5.39732111 107.843749,5.2767854 107.504463,5.2767854 C107.165178,5.2767854 106.874999,5.39732111 106.633928,5.63839252 C106.392856,5.87946394 106.272321,6.16964249 106.272321,6.50892818 C106.272321,6.84821388 106.392856,7.13839243 106.633928,7.37946385 C106.874999,7.62053526 107.165178,7.74107097 107.504463,7.74107097 Z M102.013392,17.2767847 C103.477678,17.2767847 104.723214,16.7633919 105.749999,15.7366062 C106.776785,14.7098206 107.290178,13.4642849 107.290178,11.9999993 C107.290178,10.5357137 106.776785,9.29017802 105.749999,8.26339236 C104.723214,7.23660671 103.477678,6.72321388 102.013392,6.72321388 C100.549107,6.72321388 99.3035711,7.23660671 98.2767854,8.26339236 C97.2499997,9.29017802 96.7366069,10.5357137 96.7366069,11.9999993 C96.7366069,13.4642849 97.2499997,14.7098206 98.2767854,15.7366062 C99.3035711,16.7633919 100.549107,17.2767847 102.013392,17.2767847 Z M102.013392,15.4285705 C101.066964,15.4285705 100.258928,15.0937491 99.5892853,14.4241063 C98.9196425,13.7544635 98.5848211,12.9464278 98.5848211,11.9999993 C98.5848211,11.0535708 98.9196425,10.2455351 99.5892853,9.57589229 C100.258928,8.90624947 101.066964,8.57142806 102.013392,8.57142806 C102.959821,8.57142806 103.767857,8.90624947 104.437499,9.57589229 C105.107142,10.2455351 105.441964,11.0535708 105.441964,11.9999993 C105.441964,12.9464278 105.107142,13.7544635 104.437499,14.4241063 C103.767857,15.0937491 102.959821,15.4285705 102.013392,15.4285705 Z" id=""></path>
                    </g>
                </g>
            </g>
        </g>
    </g>
</svg>