<?xml version="1.0" encoding="UTF-8"?>
<svg width="129px" height="47px" viewBox="0 0 129 47" version="1.1" xmlns="http://www.w3.org/2000/svg" xmlns:xlink="http://www.w3.org/1999/xlink">
    <title>Logo_Main_White</title>
    <defs>
        <polygon id="path-1" points="0 0.0256000972 21.9911079 0.0256000972 21.9911079 25.8294023 0 25.8294023"></polygon>
    </defs>
    <g id="Symbols" stroke="none" stroke-width="1" fill="none" fill-rule="evenodd">
        <g id="Navigation" transform="translate(-40.000000, -12.000000)">
            <g id="Logo_Main">
                <g transform="translate(40.000000, 10.000000)">
                    <g id="Group-24" stroke-width="1" fill-rule="evenodd">
                        <rect id="Rectangle" x="0" y="0" width="121.866359" height="50"></rect>
                        <path d="M61.7312303,2.76334913 L70.8920986,2.7613569 C67.7573974,4.22564261 65.6080728,7.2607981 65.9080132,10.6769667 C66.3477269,15.6744643 70.8920986,17.6094133 70.8920986,23.5024162 C70.8920986,27.4285945 68.3503145,30.8751446 65.5439064,32.3653292 L57.2067552,30.0623166 C60.0882728,28.7165683 61.9968492,25.9194837 61.8724958,22.8693865 C61.6794993,18.1244035 57.2067552,15.9518817 57.2067552,10.5798457 C57.2067552,6.93805758 59.2282445,4.02243562 61.7312303,2.76334913" id="Fill-1" fill="#6D1F36"></path>
                        <polygon id="Fill-3" fill="#6D1F36" points="81.3304746 27.5207349 81.3304746 9.07969995 75.7465083 9.07969995 75.7465083 2.76185496 94.3154595 2.76185496 94.3154595 9.07969995 88.6777725 9.07969995 88.6777725 27.5207349"></polygon>
                        <g id="Group-7" transform="translate(0.000000, 2.258370)">
                            <mask id="mask-2" fill="white">
                                <use xlink:href="#path-1"></use>
                            </mask>
                            <g id="Clip-6"></g>
                            <path d="M-4.97413712e-05,12.9242638 C-4.97413712e-05,20.0559329 5.77094415,25.8294023 12.8983852,25.8294023 C16.4484269,25.8294023 19.6597298,24.4009767 21.9911079,22.0865087 L16.9866285,17.0830345 C15.9350959,18.1174976 14.4920988,18.7560058 12.8983852,18.7560058 C9.68608747,18.7560058 7.06819911,16.1446963 7.06819911,12.9277502 C7.06819911,9.71030612 9.68608747,7.09949466 12.8983852,7.09949466 C14.4920988,7.09949466 15.9350959,7.73800292 16.9866285,8.77146987 L21.9911079,3.76699951 C19.6597298,1.45402575 16.4484269,0.0256000972 12.8983852,0.0256000972 C5.77094415,0.0256000972 -4.97413712e-05,5.7920967 -4.97413712e-05,12.9242638" id="Fill-5" fill="#6D1F36" mask="url(#mask-2)"></path>
                        </g>
                        <path d="M38.5509554,2.28471696 C31.4230169,2.28471696 25.6525205,8.05818635 25.6525205,15.1903535 C25.6525205,22.3299915 31.4230169,28.1084414 38.5509554,28.1084414 C45.6863551,28.1084414 51.4568516,22.3299915 51.4568516,15.1903535 C51.4568516,8.05818635 45.6863551,2.28471696 38.5509554,2.28471696 M38.3291089,21.0151227 C35.1163138,21.0151227 32.4984254,18.4003268 32.4984254,15.1868671 C32.4984254,11.969921 35.1163138,9.35861152 38.3291089,9.35861152 C41.551355,9.35861152 44.1587976,11.969921 44.1587976,15.1868671 C44.1587976,18.4003268 41.551355,21.0151227 38.3291089,21.0151227" id="Fill-8" fill="#6D1F36"></path>
                        <path d="M113.694946,2.76140671 L104.757914,2.76140671 L96.9276276,27.5202867 L104.479363,27.5202867 L105.490107,23.2569242 L112.954795,23.2569242 L113.959073,27.5202867 L121.525233,27.5202867 L113.694946,2.76140671 Z M106.775922,17.8181487 L109.022739,8.33017493 L109.413707,8.33017493 L111.660027,17.8181487 L106.775922,17.8181487 Z" id="Fill-10" fill="#6D1F36"></path>
                        <polygon id="Fill-12" fill="#6D1F36" points="53.2834542 38.5096016 60.8053444 38.5096016 60.8053444 40.4878814 55.5884694 40.4878814 55.5884694 42.4417566 59.9159687 42.4417566 59.9159687 44.4190403 55.5884694 44.4190403 55.5884694 48.4005029 53.2834542 48.4005029"></polygon>
                        <polygon id="Fill-14" fill="#6D1F36" points="63.9550178 38.5096016 71.4769079 38.5096016 71.4769079 40.4878814 66.2600329 40.4878814 66.2600329 42.4417566 70.5875322 42.4417566 70.5875322 44.4190403 66.2600329 44.4190403 66.2600329 48.4005029 63.9550178 48.4005029"></polygon>
                        <path d="M36.0614993,45.054361 C35.5377227,45.876154 34.6194969,46.4210277 33.5734359,46.4210277 C31.9454008,46.4210277 30.6262597,45.0991861 30.6262597,43.4695457 C30.6262597,41.8389091 31.9454008,40.5180637 33.5734359,40.5180637 C34.4851952,40.5180637 35.2989641,40.9309524 35.8396528,41.5809159 L37.3672103,40.0548712 C36.4340622,39.0149295 35.080102,38.3614796 33.5739333,38.3614796 C30.7565821,38.3614796 28.4724583,40.6480564 28.4724583,43.4695457 C28.4724583,46.291035 30.7565821,48.5776118 33.5739333,48.5776118 C35.2049529,48.5776118 36.6569035,47.7817177 37.590549,46.5898688 L36.0614993,45.054361 Z" id="Fill-16" fill="#6D1F36"></path>
                        <polygon id="Fill-18" fill="#6D1F36" points="76.9533334 46.4128098 76.9533334 44.4195882 81.2813301 44.4195882 81.2813301 42.4403122 76.9533334 42.4403122 76.9533334 40.4869351 82.0408809 40.4869351 82.0408809 38.5091533 74.6483183 38.5091533 74.6483183 48.4000547 82.2428308 48.4000547 82.2428308 46.4128098"></polygon>
                        <polygon id="Fill-20" fill="#6D1F36" points="93.0751087 40.487234 93.0751087 38.508456 85.6825461 38.508456 85.6825461 48.4003535 93.2775561 48.4003535 93.2775561 46.4126105 87.9880587 46.4126105 87.9880587 44.419887 92.3150606 44.419887 92.3150606 42.4416071 87.9880587 42.4416071 87.9880587 40.487234"></polygon>
                        <path d="M44.9784857,38.3534609 C42.1611344,38.3534609 39.8770107,40.6405357 39.8770107,43.461527 C39.8770107,46.2830163 42.1611344,48.5700911 44.9784857,48.5700911 C47.7953395,48.5700911 50.0799607,46.2830163 50.0799607,43.461527 C50.0799607,40.6405357 47.7953395,38.3534609 44.9784857,38.3534609 M44.9889314,46.3930867 C43.3668653,46.3930867 42.0517034,45.0757276 42.0517034,43.4515658 C42.0517034,41.826906 43.3668653,40.510543 44.9889314,40.510543 C46.6109975,40.510543 47.9266568,41.826906 47.9266568,43.4515658 C47.9266568,45.0757276 46.6109975,46.3930867 44.9889314,46.3930867" id="Fill-22" fill="#6D1F36"></path>
                    </g>
                    <path d="M125.78035,27.5952381 C127.164276,27.5952381 128.262857,26.452381 128.262857,25.0952381 L128.262857,25.0809524 C128.262857,23.7238095 127.178544,22.5952381 125.78035,22.5952381 C124.396424,22.5952381 123.297843,23.7380952 123.297843,25.0952381 L123.297843,25.1095238 C123.297843,26.4666667 124.382157,27.5952381 125.78035,27.5952381 Z M125.78035,27.3238095 C124.524829,27.3238095 123.583189,26.3238095 123.583189,25.1095238 L123.583189,25.0952381 C123.583189,23.8809524 124.539097,22.8666667 125.78035,22.8666667 C127.035871,22.8666667 127.977512,23.8666667 127.977512,25.0809524 L127.977512,25.0952381 C127.977512,26.3095238 127.021604,27.3238095 125.78035,27.3238095 Z M125.380866,26.3380952 L125.380866,25.5238095 L125.78035,25.5238095 L126.336774,26.3380952 L127.09294,26.3380952 L126.436645,25.4095238 C126.77906,25.2952381 127.007336,25.0238095 127.007336,24.6095238 C127.007336,24.0238095 126.565051,23.752381 125.965825,23.752381 L124.753106,23.752381 L124.753106,26.3380952 L125.380866,26.3380952 Z M125.923023,25.0095238 L125.380866,25.0095238 L125.380866,24.2952381 L125.923023,24.2952381 C126.194101,24.2952381 126.365309,24.4238095 126.365309,24.652381 C126.365309,24.8666667 126.208369,25.0095238 125.923023,25.0095238 Z" id="®" fill="#6D1F36" fill-rule="nonzero"></path>
                </g>
            </g>
        </g>
    </g>
</svg>