<?xml version="1.0" encoding="UTF-8"?>
<svg width="217px" height="84px" viewBox="0 0 217 84" version="1.1" xmlns="http://www.w3.org/2000/svg" xmlns:xlink="http://www.w3.org/1999/xlink">
    <title>Logo_Main_White</title>
    <defs>
        <polygon id="path-1" points="0 0.0430081633 36.9927939 0.0430081633 36.9927939 43.3933959 0 43.3933959"></polygon>
    </defs>
    <g id="Logo_Main_White" stroke="none" stroke-width="1" fill="none" fill-rule="evenodd">
        <g id="Group-24">
            <rect id="Rectangle" x="0" y="0" width="205" height="84"></rect>
            <path d="M103.842457,4.64242653 L119.2526,4.63907959 C113.979498,7.09907959 110.363967,12.1981408 110.868518,17.9373041 C111.608192,26.3331 119.2526,29.5838143 119.2526,39.4840592 C119.2526,46.0800388 114.976886,51.8702429 110.256029,54.3737531 L96.2315184,50.5046918 C101.078722,48.2438347 104.289273,43.5447327 104.08009,38.4205694 C103.755437,30.448998 96.2315184,26.7991612 96.2315184,17.7741408 C96.2315184,11.6559367 99.6320082,6.75769184 103.842457,4.64242653" id="Fill-1" fill="#FFFFFF"></path>
            <polygon id="Fill-3" fill="#FFFFFF" points="136.811729 46.2348347 136.811729 15.2538959 127.418545 15.2538959 127.418545 4.63991633 158.654688 4.63991633 158.654688 15.2538959 149.171137 15.2538959 149.171137 46.2348347"></polygon>
            <g id="Group-7" transform="translate(0.000000, 3.794061)">
                <mask id="mask-2" fill="white">
                    <use xlink:href="#path-1"></use>
                </mask>
                <g id="Clip-6"></g>
                <path d="M-8.36734694e-05,21.7127633 C-8.36734694e-05,33.6939673 9.70771224,43.3933959 21.6972837,43.3933959 C27.6690592,43.3933959 33.0710184,40.9936408 36.9927939,37.1053347 L28.5744061,28.699498 C26.805549,30.4373959 24.3781816,31.5100898 21.6972837,31.5100898 C16.293651,31.5100898 11.8899163,27.1230898 11.8899163,21.7186204 C11.8899163,16.3133143 16.293651,11.927151 21.6972837,11.927151 C24.3781816,11.927151 26.805549,12.9998449 28.5744061,14.7360694 L36.9927939,6.32855918 C33.0710184,2.44276327 27.6690592,0.0430081633 21.6972837,0.0430081633 C9.70771224,0.0430081633 -8.36734694e-05,9.73072245 -8.36734694e-05,21.7127633" id="Fill-5" fill="#FFFFFF" mask="url(#mask-2)"></path>
            </g>
            <path d="M64.8492816,3.83832449 C52.8588735,3.83832449 43.1519143,13.5377531 43.1519143,25.5197939 C43.1519143,37.5143857 52.8588735,47.2221816 64.8492816,47.2221816 C76.8522408,47.2221816 86.5592,37.5143857 86.5592,25.5197939 C86.5592,13.5377531 76.8522408,3.83832449 64.8492816,3.83832449 M64.476098,35.3054061 C59.0716286,35.3054061 54.6678939,30.912549 54.6678939,25.5139367 C54.6678939,20.1094673 59.0716286,15.7224673 64.476098,15.7224673 C69.8964653,15.7224673 74.2826286,20.1094673 74.2826286,25.5139367 C74.2826286,30.912549 69.8964653,35.3054061 64.476098,35.3054061" id="Fill-8" fill="#FFFFFF"></path>
            <path d="M191.25429,4.63916327 L176.220678,4.63916327 L163.0488,46.2340816 L175.752106,46.2340816 L177.452351,39.0716327 L190.009229,39.0716327 L191.698596,46.2340816 L204.426167,46.2340816 L191.25429,4.63916327 Z M179.61531,29.9344898 L183.394841,13.9946939 L184.052514,13.9946939 L187.831208,29.9344898 L179.61531,29.9344898 Z" id="Fill-10" fill="#FFFFFF"></path>
            <polygon id="Fill-12" fill="#FFFFFF" points="89.6318571 64.6961306 102.284959 64.6961306 102.284959 68.0196408 93.5092857 68.0196408 93.5092857 71.302151 100.788878 71.302151 100.788878 74.6239878 93.5092857 74.6239878 93.5092857 81.3128449 89.6318571 81.3128449"></polygon>
            <polygon id="Fill-14" fill="#FFFFFF" points="107.583247 64.6961306 120.236349 64.6961306 120.236349 68.0196408 111.460676 68.0196408 111.460676 71.302151 118.740267 71.302151 118.740267 74.6239878 111.460676 74.6239878 111.460676 81.3128449 107.583247 81.3128449"></polygon>
            <path d="M60.6615918,75.6913265 C59.7805102,77.0719388 58.235898,77.9873265 56.4762449,77.9873265 C53.7376122,77.9873265 51.5185918,75.7666327 51.5185918,73.0288367 C51.5185918,70.2893673 53.7376122,68.0703469 56.4762449,68.0703469 C58.0099796,68.0703469 59.3788776,68.764 60.2884082,69.8559388 L62.8580204,67.2921837 C61.2883061,65.5450816 59.0107143,64.4472857 56.4770816,64.4472857 C51.7378163,64.4472857 47.8955306,68.2887347 47.8955306,73.0288367 C47.8955306,77.7689388 51.7378163,81.6103878 56.4770816,81.6103878 C59.2207347,81.6103878 61.6631633,80.2732857 63.2337143,78.2709796 L60.6615918,75.6913265 Z" id="Fill-16" fill="#FFFFFF"></path>
            <polygon id="Fill-18" fill="#FFFFFF" points="129.448631 77.9735204 129.448631 74.6249082 136.729059 74.6249082 136.729059 71.2997245 129.448631 71.2997245 129.448631 68.018051 138.006753 68.018051 138.006753 64.6953776 125.571202 64.6953776 125.571202 81.3120918 138.346467 81.3120918 138.346467 77.9735204"></polygon>
            <polygon id="Fill-20" fill="#FFFFFF" points="156.568206 68.0185531 156.568206 64.6942061 144.132655 64.6942061 144.132655 81.3125939 156.908757 81.3125939 156.908757 77.9731857 148.01092 77.9731857 148.01092 74.6254102 155.289676 74.6254102 155.289676 71.3019 148.01092 71.3019 148.01092 68.0185531"></polygon>
            <path d="M75.6614837,64.4338143 C70.9222184,64.4338143 67.0799327,68.2761 67.0799327,73.0153653 C67.0799327,77.7554673 70.9222184,81.5977531 75.6614837,81.5977531 C80.3999122,81.5977531 84.2430347,77.7554673 84.2430347,73.0153653 C84.2430347,68.2761 80.3999122,64.4338143 75.6614837,64.4338143 M75.6790551,77.9403857 C72.9504633,77.9403857 70.7381367,75.7272224 70.7381367,72.9986306 C70.7381367,70.269202 72.9504633,68.0577122 75.6790551,68.0577122 C78.4076469,68.0577122 80.6208102,70.269202 80.6208102,72.9986306 C80.6208102,75.7272224 78.4076469,77.9403857 75.6790551,77.9403857" id="Fill-22" fill="#FFFFFF"></path>
        </g>
        <path d="M211.584,46.36 C213.912,46.36 215.76,44.44 215.76,42.16 L215.76,42.136 C215.76,39.856 213.936,37.96 211.584,37.96 C209.256,37.96 207.408,39.88 207.408,42.16 L207.408,42.184 C207.408,44.464 209.232,46.36 211.584,46.36 Z M211.584,45.904 C209.472,45.904 207.888,44.224 207.888,42.184 L207.888,42.16 C207.888,40.12 209.496,38.416 211.584,38.416 C213.696,38.416 215.28,40.096 215.28,42.136 L215.28,42.16 C215.28,44.2 213.672,45.904 211.584,45.904 Z M210.912,44.248 L210.912,42.88 L211.584,42.88 L212.52,44.248 L213.792,44.248 L212.688,42.688 C213.264,42.496 213.648,42.04 213.648,41.344 C213.648,40.36 212.904,39.904 211.896,39.904 L209.856,39.904 L209.856,44.248 L210.912,44.248 Z M211.824,42.016 L210.912,42.016 L210.912,40.816 L211.824,40.816 C212.28,40.816 212.568,41.032 212.568,41.416 C212.568,41.776 212.304,42.016 211.824,42.016 Z" id="®" fill="#FFFFFF" fill-rule="nonzero"></path>
    </g>
</svg>