<?xml version="1.0" encoding="UTF-8"?>
<svg width="22px" height="18px" viewBox="0 0 22 18" version="1.1" xmlns="http://www.w3.org/2000/svg" xmlns:xlink="http://www.w3.org/1999/xlink">
    <!-- Generator: Sketch 64 (93537) - https://sketch.com -->
    <title></title>
    <desc>Created with Sketch.</desc>
    <g id="Symbols" stroke="none" stroke-width="1" fill="none" fill-rule="evenodd">
        <g id="Footer_Desktop_new" transform="translate(-1123.000000, -355.000000)" fill="#FFFFFF" fill-rule="nonzero">
            <g id="Footer_Desktop">
                <g id="Group" transform="translate(1082.000000, 320.000000)">
                    <g id="Group-2" transform="translate(0.000000, 32.000000)">
                        <path d="M47.9598211,20.5714273 C49.4955353,20.5714273 50.9374995,20.3281238 52.2857137,19.8415167 C53.6339279,19.3549096 54.7857135,18.7031239 55.7410706,17.8861596 C56.6964277,17.0691954 57.5200884,16.1294633 58.2120526,15.0669634 C58.9040168,14.0044635 59.4196418,12.8950885 59.7589275,11.7388386 C60.0982132,10.5825887 60.2678561,9.42410658 60.2678561,8.26339236 C60.2678561,8.01339238 60.2633918,7.82589239 60.2544632,7.7008924 C61.1026774,7.08482101 61.8258917,6.33928534 62.4241059,5.46428539 C61.5937488,5.82142822 60.7633917,6.0446425 59.9330346,6.13392821 C60.8705346,5.57142824 61.5044631,4.77678543 61.8348202,3.74999978 C60.9776774,4.25892832 60.0624989,4.60714258 59.0892847,4.79464257 C58.2321419,3.88392834 57.1785705,3.42857122 55.9285706,3.42857122 C54.7321421,3.42857122 53.7120529,3.8504462 52.8683029,4.69419615 C52.024553,5.5379461 51.602678,6.55803532 51.602678,7.75446382 C51.602678,8.07589238 51.6383923,8.4062495 51.7098208,8.74553519 C49.9419638,8.65624948 48.2834818,8.21205308 46.7343747,7.41294599 C45.1852677,6.61383889 43.8705356,5.54910681 42.7901785,4.21874975 C42.3973214,4.88839257 42.2008928,5.61607109 42.2008928,6.40178533 C42.2008928,7.14285672 42.375,7.83035668 42.7232142,8.46428521 C43.0714285,9.09821374 43.5401785,9.61160657 44.1294642,10.0044637 C43.4330356,9.97767798 42.78125,9.79464227 42.1741071,9.45535658 L42.1741071,9.45535658 L42.1741071,9.508928 C42.1741071,10.5535708 42.5022321,11.4709815 43.1584821,12.26116 C43.814732,13.0513385 44.642857,13.5491063 45.6428569,13.7544635 C45.2678569,13.8526777 44.8883927,13.9017849 44.5044641,13.9017849 C44.2544642,13.9017849 43.9821427,13.8794635 43.6874999,13.8348206 C43.9642856,14.700892 44.4732141,15.4129455 45.2142855,15.9709812 C45.9553569,16.5290169 46.7946426,16.8169633 47.7321425,16.8348204 C46.160714,18.0669632 44.3705356,18.6830346 42.3616071,18.6830346 C41.9776786,18.6830346 41.6294643,18.6651775 41.3169643,18.6294632 C43.3258928,19.924106 45.5401784,20.5714273 47.9598211,20.5714273 Z" id=""></path>
                    </g>
                </g>
            </g>
        </g>
    </g>
</svg>